<?xml version="1.0" standalone="no"?>
<!DOCTYPE svg PUBLIC "-//W3C//DTD SVG 20010904//EN"
 "http://www.w3.org/TR/2001/REC-SVG-20010904/DTD/svg10.dtd">
<svg version="1.0" xmlns="http://www.w3.org/2000/svg"
 width="4675.000000pt" height="4675.000000pt" viewBox="0 0 4675.000000 4675.000000"
 preserveAspectRatio="xMidYMid meet">
<metadata>
Created by potrace 1.16, written by Peter Selinger 2001-2019
</metadata>
<g transform="translate(0.000000,4675.000000) scale(0.100000,-0.100000)"
fill="#000000" stroke="none">
<path d="M22920 37823 c-175 -7 -531 -35 -740 -58 -1633 -182 -3192 -753
-4575 -1676 -828 -552 -1579 -1225 -2226 -1994 -838 -997 -1489 -2156 -1902
-3385 -624 -1857 -705 -3891 -231 -5820 274 -1115 750 -2208 1382 -3175 141
-215 274 -404 309 -437 77 -74 217 -95 320 -49 62 27 76 42 478 489 173 192
301 343 318 375 65 124 48 204 -91 414 -444 670 -784 1371 -1035 2138 -226
688 -349 1309 -418 2105 -17 201 -23 881 -10 1117 107 1877 777 3623 1955
5088 266 331 665 755 969 1028 375 338 788 652 1212 922 1158 737 2479 1196
3840 1335 502 51 1103 58 1605 20 2822 -218 5379 -1788 6872 -4220 732 -1193
1162 -2513 1283 -3940 22 -257 31 -871 16 -1145 -86 -1604 -587 -3122 -1470
-4454 -108 -163 -128 -214 -118 -308 3 -33 17 -73 34 -103 24 -42 640 -737
719 -812 62 -58 169 -87 257 -68 115 23 154 64 372 390 438 653 805 1360 1081
2080 661 1726 847 3630 534 5476 -307 1815 -1089 3501 -2288 4936 -747 895
-1668 1679 -2677 2280 -1462 870 -3096 1361 -4825 1448 -176 9 -759 11 -950 3z"/>
<path d="M23330 28430 c-780 -65 -1404 -669 -1484 -1435 -6 -55 -42 -1164
-175 -5470 -28 -874 -55 -1673 -61 -1775 -14 -250 -28 -1047 -40 -2350 -6
-596 -12 -1086 -14 -1088 -6 -5 -459 471 -690 723 -115 126 -259 279 -320 339
-563 553 -1512 1016 -2401 1172 -146 26 -182 28 -410 29 -280 0 -348 -9 -507
-70 -147 -57 -277 -153 -444 -328 -251 -261 -426 -577 -490 -877 -26 -123 -24
-319 5 -425 81 -301 285 -500 847 -825 388 -225 550 -335 737 -498 126 -111
181 -173 477 -547 778 -982 1687 -2081 2330 -2815 282 -323 503 -564 546 -597
117 -90 218 -174 374 -308 234 -201 282 -238 435 -335 487 -309 912 -622 1136
-837 153 -147 286 -234 679 -446 107 -58 242 -133 300 -167 643 -376 1466
-611 2455 -701 181 -16 1435 -23 1737 -10 376 17 613 43 883 97 438 87 832
264 1133 507 51 41 92 67 107 67 16 0 26 7 31 23 3 12 75 92 159 177 182 186
281 298 402 457 469 617 749 1291 848 2041 34 264 36 439 33 3557 -4 3361 0
3109 -58 3379 -114 525 -416 897 -844 1040 -154 51 -267 69 -441 69 -195 1
-291 -16 -500 -85 -82 -27 -163 -48 -179 -46 -27 3 -31 9 -70 123 -51 143 -84
211 -165 331 -147 221 -373 388 -631 469 -353 110 -835 96 -1166 -35 -88 -35
-247 -117 -311 -161 l-42 -29 -47 90 c-64 121 -155 239 -263 342 -185 176
-395 283 -667 339 -142 29 -437 37 -600 15 -401 -53 -726 -218 -1023 -520 -63
-64 -116 -116 -117 -116 -2 0 -5 1450 -6 3223 l-3 3222 -27 101 c-100 374
-336 668 -676 838 -96 48 -227 92 -332 110 -108 19 -327 27 -450 16z"/>
</g>
</svg>
